# Blender v2.79 (sub 0) OBJ File: 'connector_super.blend'
# www.blender.org
o Cube_Cube.001
v -0.187500 0.437500 0.187500
v 0.187500 0.437500 -0.187500
v -0.187500 0.437500 -0.187500
v 0.187500 0.437500 0.187500
v -0.187500 0.562500 -0.187500
v 0.187500 0.562500 0.187500
v -0.187500 0.562500 0.187500
v 0.187500 0.562500 -0.187500
v -0.125000 0.437500 -0.125000
v -0.125000 0.437500 0.125000
v 0.125000 0.437500 -0.125000
v 0.125000 0.437500 0.125000
v 0.125000 0.375000 0.125000
v -0.125000 0.375000 -0.125000
v 0.125000 0.375000 -0.125000
v -0.125000 0.375000 0.125000
v 0.187500 0.375000 -0.187500
v -0.187500 0.375000 0.187500
v 0.187500 0.375000 0.187500
v -0.187500 0.375000 -0.187500
v 0.187500 0.250000 0.187500
v -0.187500 0.250000 -0.187500
v 0.187500 0.250000 -0.187500
v -0.187500 0.250000 0.187500
v -0.125000 0.250000 0.125000
v 0.125000 0.187500 0.125000
v 0.125000 0.250000 0.125000
v 0.125000 0.250000 -0.125000
v -0.125000 0.187500 -0.125000
v -0.125000 0.250000 -0.125000
v 0.125000 0.187500 -0.125000
v -0.125000 0.187500 0.125000
v 0.187500 0.187500 -0.187500
v -0.187500 0.187500 0.187500
v 0.187500 0.187500 0.187500
v -0.187500 0.187500 -0.187500
v 0.187500 0.062500 0.187500
v -0.187500 0.062500 -0.187500
v 0.187500 0.062500 -0.187500
v -0.187500 0.062500 0.187500
v -0.125000 0.062500 0.125000
v 0.125000 -0.000000 0.125000
v 0.125000 0.062500 0.125000
v 0.125000 0.062500 -0.125000
v -0.125000 0.000000 -0.125000
v -0.125000 0.062500 -0.125000
v 0.125000 0.000000 -0.125000
v -0.125000 -0.000000 0.125000
v -0.062500 0.937500 0.062500
v -0.062500 0.812500 -0.062500
v -0.062500 0.812500 0.062500
v -0.062500 0.937500 -0.062500
v 0.062500 0.812500 -0.062500
v 0.062500 0.937500 -0.062500
v 0.062500 0.812500 0.062500
v 0.062500 0.937500 0.062500
v -0.125000 0.812500 -0.125000
v -0.125000 0.812500 0.125000
v 0.125000 0.812500 -0.125000
v 0.125000 0.812500 0.125000
v -0.125000 0.750000 -0.125000
v -0.125000 0.750000 0.125000
v 0.125000 0.750000 -0.125000
v 0.125000 0.750000 0.125000
v -0.187500 0.625000 0.187500
v 0.187500 0.625000 -0.187500
v -0.187500 0.625000 -0.187500
v 0.187500 0.625000 0.187500
v -0.187500 0.750000 -0.187500
v 0.187500 0.750000 0.187500
v -0.187500 0.750000 0.187500
v 0.187500 0.750000 -0.187500
v -0.125000 0.625000 -0.125000
v -0.125000 0.625000 0.125000
v 0.125000 0.625000 -0.125000
v 0.125000 0.625000 0.125000
v 0.125000 0.562500 0.125000
v -0.125000 0.562500 -0.125000
v 0.125000 0.562500 -0.125000
v -0.125000 0.562500 0.125000
v -0.093750 0.812500 0.125000
v 0.093750 0.812500 0.125000
v -0.093750 0.937500 0.125000
v 0.093750 0.937500 0.125000
v 0.093750 0.812500 -0.125000
v -0.093750 0.812500 -0.125000
v 0.093750 0.937500 -0.125000
v -0.093750 0.937500 -0.125000
v 0.125000 0.812500 0.093750
v 0.125000 0.812500 -0.093750
v 0.125000 0.937500 0.093750
v 0.125000 0.937500 -0.093750
v -0.125000 0.812500 -0.093750
v -0.125000 0.812500 0.093750
v -0.125000 0.937500 -0.093750
v -0.125000 0.937500 0.093750
v 0.062500 1.000000 0.093750
v 0.062500 1.000000 -0.093750
v -0.062500 1.000000 -0.093750
v -0.062500 1.000000 0.093750
v -0.093750 1.000000 0.062500
v 0.093750 1.000000 0.062500
v 0.093750 1.000000 -0.062500
v -0.093750 1.000000 -0.062500
v -0.093750 0.812500 0.125000
v 0.093750 0.812500 0.125000
v -0.093750 0.937500 0.125000
v 0.093750 0.937500 0.125000
v 0.093750 0.812500 -0.125000
v -0.093750 0.812500 -0.125000
v 0.093750 0.937500 -0.125000
v -0.093750 0.937500 -0.125000
v 0.125000 0.812500 0.093750
v 0.125000 0.812500 -0.093750
v 0.125000 0.937500 0.093750
v 0.125000 0.937500 -0.093750
v -0.125000 0.812500 -0.093750
v -0.125000 0.812500 0.093750
v -0.125000 0.937500 -0.093750
v -0.125000 0.937500 0.093750
v 0.062500 1.000000 0.093750
v 0.062500 1.000000 -0.093750
v -0.062500 1.000000 -0.093750
v -0.062500 1.000000 0.093750
v -0.093750 1.000000 0.062500
v 0.093750 1.000000 0.062500
v 0.093750 1.000000 -0.062500
v -0.093750 1.000000 -0.062500
vt 0.111111 0.300000
vt 0.555556 0.333333
vt 0.111111 0.333333
vt 0.111111 0.300000
vt 0.555556 0.333333
vt 0.111111 0.333333
vt -0.000000 0.200000
vt 0.666667 0.266667
vt -0.000000 0.266667
vt 0.111111 0.466667
vt 0.555556 0.500000
vt 0.111111 0.500000
vt -0.000000 0.533333
vt 0.666667 0.366667
vt -0.000000 0.366667
vt -0.000000 0.266667
vt 0.555556 0.300000
vt 0.111111 0.300000
vt 0.111111 0.166667
vt 0.666667 0.200000
vt -0.000000 0.533333
vt 0.555556 0.500000
vt 0.666667 0.533333
vt 0.666667 0.533333
vt 0.111111 0.500000
vt 0.555556 0.500000
vt -0.000000 0.366667
vt 0.666667 0.433333
vt -0.000000 0.433333
vt -0.000000 0.200000
vt 0.666667 0.266667
vt -0.000000 0.266667
vt 0.111111 0.166667
vt 0.666667 0.200000
vt 0.555556 0.300000
vt 0.111111 0.333333
vt 0.666667 0.366667
vt -0.000000 0.366667
vt 0.555556 0.466667
vt 0.111111 0.466667
vt 0.111111 0.466667
vt 0.111111 0.466667
vt 0.555556 0.500000
vt 0.111111 0.500000
vt 0.111111 0.133333
vt 0.555556 0.166667
vt 0.111111 0.166667
vt 0.666667 0.533333
vt 0.555556 0.333333
vt 0.111111 0.333333
vt 0.111111 0.166667
vt 0.666667 0.200000
vt -0.000000 0.200000
vt 0.111111 0.133333
vt 0.555556 -0.000000
vt 0.555556 0.133333
vt 0.666667 0.600000
vt -0.000000 0.600000
vt -0.000000 0.266667
vt 0.555556 0.300000
vt 0.111111 0.300000
vt -0.000000 0.433333
vt 0.555556 0.466667
vt -0.000000 0.433333
vt 0.555556 0.466667
vt 0.111111 0.833333
vt 0.444444 0.866667
vt 0.222222 0.866667
vt 0.666667 0.433333
vt 0.666667 0.433333
vt 0.111111 0.500000
vt 0.666667 0.266667
vt -0.000000 0.366667
vt 0.666667 0.433333
vt -0.000000 0.433333
vt -0.000000 0.200000
vt 0.666667 0.266667
vt 0.111111 0.133333
vt 0.555556 0.166667
vt 0.111111 0.133333
vt 0.555556 0.166667
vt 0.555556 0.333333
vt 0.666667 0.200000
vt -0.000000 0.533333
vt 0.666667 0.600000
vt -0.000000 0.600000
vt -0.000000 0.533333
vt 0.666667 0.600000
vt -0.000000 0.600000
vt 0.666667 0.366667
vt 0.666667 0.366667
vt 0.555556 0.466667
vt 0.555556 0.300000
vt 0.666667 0.600000
vt -0.000000 0.600000
vt 0.111111 0.833333
vt 0.444444 0.866667
vt 0.222222 0.866667
vt 0.111111 0.833333
vt 0.444444 0.866667
vt 0.222222 0.866667
vt 0.222222 0.933333
vt 0.444444 0.866667
vt 0.444444 0.933333
vt 0.222222 0.933333
vt 0.444444 0.933333
vt 0.222222 1.000000
vt 0.444444 0.933333
vt 0.444444 1.000000
vt 0.222222 0.933333
vt 0.222222 0.933333
vt 0.444444 0.933333
vt 0.111111 0.833333
vt 0.222222 0.866667
vt 0.555556 0.166667
vt 0.555556 0.800000
vt 0.555556 0.833333
vt 0.555556 0.800000
vt 0.555556 0.833333
vt 0.555556 0.800000
vt 0.555556 0.833333
vt 0.555556 0.800000
vt 0.555556 0.833333
vt 0.111111 0.633333
vt 0.555556 0.666667
vt 0.111111 0.666667
vt -0.000000 0.700000
vt -0.000000 0.700000
vt 0.555556 0.666667
vt 0.666667 0.700000
vt 0.666667 0.700000
vt 0.111111 0.666667
vt 0.555556 0.666667
vt 0.111111 0.633333
vt 0.111111 0.633333
vt 0.555556 0.666667
vt 0.111111 0.666667
vt 0.666667 0.700000
vt 0.666667 0.766667
vt -0.000000 0.766667
vt 0.111111 0.633333
vt 0.111111 0.666667
vt -0.000000 0.700000
vt 0.666667 0.766667
vt -0.000000 0.766667
vt -0.000000 0.700000
vt 0.666667 0.766667
vt -0.000000 0.766667
vt 0.666667 0.766667
vt -0.000000 0.766667
vt 0.555556 0.633333
vt 0.555556 0.633333
vt 0.111111 0.800000
vt 0.111111 0.800000
vt 0.111111 0.800000
vt 0.111111 0.800000
vt 1.000000 0.100000
vt 0.666667 -0.000000
vt 1.000000 -0.000000
vt 0.666667 0.300000
vt 1.000000 0.400000
vt 0.666667 0.400000
vt 0.666667 0.300000
vt 1.000000 0.400000
vt 0.666667 0.400000
vt 1.000000 0.100000
vt 0.666667 -0.000000
vt 1.000000 -0.000000
vt 0.666667 0.166667
vt 0.666667 0.100000
vt 1.000000 0.233333
vt 1.000000 0.300000
vt 1.000000 0.233333
vt 1.000000 0.300000
vt 0.666667 0.166667
vt 0.666667 0.100000
vt 1.000000 0.166667
vt 0.666667 0.233333
vt 0.666667 0.233333
vt 1.000000 0.166667
vt 0.666667 -0.000000
vt 1.000000 0.100000
vt 1.000000 -0.000000
vt 1.000000 0.400000
vt 0.666667 0.300000
vt 0.666667 0.400000
vt 1.000000 0.400000
vt 0.666667 0.300000
vt 0.666667 0.400000
vt 0.666667 -0.000000
vt 1.000000 0.100000
vt 1.000000 -0.000000
vt 0.666667 0.166667
vt 0.666667 0.100000
vt 1.000000 0.233333
vt 1.000000 0.300000
vt 1.000000 0.300000
vt 0.666667 0.233333
vt 0.666667 0.166667
vt 0.666667 0.100000
vt 1.000000 0.166667
vt 1.000000 0.166667
vt 0.666667 0.233333
vt 0.666667 0.533333
vt 0.555556 0.133333
vt 0.111111 -0.000000
vt 0.555556 0.133333
vt 0.555556 0.133333
vt 0.555556 0.633333
vt 0.666667 0.700000
vt 0.555556 0.633333
vt 1.000000 0.233333
vn 0.0000 0.0000 1.0000
vn 1.0000 0.0000 0.0000
vn 0.0000 -1.0000 0.0000
vn 0.0000 1.0000 0.0000
vn -1.0000 0.0000 0.0000
vn 0.0000 0.0000 -1.0000
vn -0.7071 0.7071 0.0000
vn 0.7071 0.7071 0.0000
vn -0.0000 0.7071 -0.7071
vn 0.0000 0.7071 0.7071
vn 0.7071 -0.7071 -0.0000
vn -0.7071 -0.7071 0.0000
vn 0.0000 -0.7071 0.7071
vn 0.0000 -0.7071 -0.7071
s off
f 32/1/1 27/2/1 25/3/1
f 26/4/2 28/5/2 27/6/2
f 37/7/2 33/8/2 35/9/2
f 16/10/1 12/11/1 10/12/1
f 12/11/3 1/13/3 10/12/3
f 27/6/3 23/14/3 21/15/3
f 36/16/4 32/17/4 29/18/4
f 43/19/3 39/20/3 37/7/3
f 3/21/3 10/22/3 1/23/3
f 3/24/3 11/25/3 9/26/3
f 22/27/5 18/28/5 20/29/5
f 40/30/1 35/31/1 34/32/1
f 41/33/3 37/34/3 40/30/3
f 35/9/4 31/35/4 26/4/4
f 28/36/3 22/37/3 23/38/3
f 20/29/4 16/39/4 14/40/4
f 15/41/6 9/26/6 11/25/6
f 13/42/2 11/43/2 12/44/2
f 45/45/5 41/46/5 46/47/5
f 2/48/3 12/44/3 11/43/3
f 29/18/5 25/49/5 30/50/5
f 44/51/3 38/52/3 39/53/3
f 42/54/3 45/55/3 47/56/3
f 1/13/1 6/57/1 7/58/1
f 33/59/4 29/60/4 31/61/4
f 17/62/4 14/63/4 15/41/4
f 19/64/4 15/65/4 13/42/4
f 60/66/4 53/67/4 55/68/4
f 21/15/2 17/69/2 19/64/2
f 23/38/6 20/70/6 17/62/6
f 14/40/5 10/22/5 9/71/5
f 39/53/6 36/72/6 33/59/6
f 24/73/1 19/74/1 18/75/1
f 38/76/5 34/77/5 36/16/5
f 47/78/6 46/79/6 44/51/6
f 48/80/1 43/81/1 41/33/1
f 31/61/6 30/82/6 28/36/6
f 46/47/3 40/83/3 38/76/3
f 2/84/6 5/85/6 8/86/6
f 4/87/2 8/88/2 6/89/2
f 25/3/3 21/90/3 24/73/3
f 30/50/3 24/91/3 22/27/3
f 18/75/4 13/92/4 16/10/4
f 34/32/4 26/93/4 32/1/4
f 3/21/5 7/94/5 5/95/5
f 58/96/4 55/97/4 51/98/4
f 57/99/4 51/100/4 50/101/4
f 54/102/6 50/103/6 52/104/6
f 49/105/1 55/97/1 56/106/1
f 49/107/4 54/108/4 52/109/4
f 56/110/2 53/67/2 54/108/2
f 52/111/5 51/100/5 49/112/5
f 59/113/4 50/103/4 53/114/4
f 42/54/2 44/115/2 43/19/2
f 57/99/5 62/116/5 58/117/5
f 59/113/6 61/118/6 57/119/6
f 58/96/1 64/120/1 60/121/1
f 60/66/2 63/122/2 59/123/2
f 80/124/1 76/125/1 74/126/1
f 76/125/3 65/127/3 74/126/3
f 67/128/3 74/129/3 65/130/3
f 67/131/3 75/132/3 73/133/3
f 79/134/6 73/133/6 75/132/6
f 77/135/2 75/136/2 76/137/2
f 66/138/3 76/137/3 75/136/3
f 65/127/1 70/139/1 71/140/1
f 78/141/5 74/129/5 73/142/5
f 66/143/6 69/144/6 72/145/6
f 68/146/2 72/147/2 70/148/2
f 67/128/5 71/149/5 69/150/5
f 79/151/4 6/89/4 8/88/4
f 5/85/4 79/134/4 8/86/4
f 80/152/4 5/95/4 7/94/4
f 6/57/4 80/124/4 7/58/4
f 70/148/4 63/122/4 64/153/4
f 63/154/4 69/144/4 61/118/4
f 69/150/4 62/116/4 61/155/4
f 62/156/4 70/139/4 64/120/4
f 84/157/1 81/158/1 82/159/1
f 88/160/6 85/161/6 86/162/6
f 92/163/2 89/164/2 90/165/2
f 96/166/5 93/167/5 94/168/5
f 96/166/7 99/169/7 95/170/7
f 92/163/8 97/171/8 91/172/8
f 88/160/9 103/173/9 87/174/9
f 84/157/10 101/175/10 83/176/10
f 102/177/4 104/178/4 101/175/4
f 98/179/4 100/180/4 97/171/4
f 105/181/6 108/182/6 106/183/6
f 109/184/1 112/185/1 110/186/1
f 113/187/5 116/188/5 114/189/5
f 117/190/2 120/191/2 118/192/2
f 123/193/11 120/191/11 119/194/11
f 121/195/12 116/188/12 115/196/12
f 111/197/13 128/198/13 112/185/13
f 125/199/14 108/182/14 107/200/14
f 128/198/3 126/201/3 125/199/3
f 124/202/3 122/203/3 121/195/3
f 32/1/1 26/93/1 27/2/1
f 26/4/2 31/35/2 28/5/2
f 37/7/2 39/20/2 33/8/2
f 16/10/1 13/92/1 12/11/1
f 12/11/3 4/204/3 1/13/3
f 27/6/3 28/5/3 23/14/3
f 36/16/4 34/77/4 32/17/4
f 43/19/3 44/115/3 39/20/3
f 3/21/3 9/71/3 10/22/3
f 3/24/3 2/84/3 11/25/3
f 22/27/5 24/91/5 18/28/5
f 40/30/1 37/34/1 35/31/1
f 41/33/3 43/81/3 37/34/3
f 35/9/4 33/8/4 31/35/4
f 28/36/3 30/82/3 22/37/3
f 20/29/4 18/28/4 16/39/4
f 15/41/6 14/63/6 9/26/6
f 13/42/2 15/65/2 11/43/2
f 45/45/5 48/205/5 41/46/5
f 2/48/3 4/87/3 12/44/3
f 29/18/5 32/17/5 25/49/5
f 44/51/3 46/79/3 38/52/3
f 42/54/3 48/206/3 45/55/3
f 1/13/1 4/204/1 6/57/1
f 33/59/4 36/72/4 29/60/4
f 17/62/4 20/70/4 14/63/4
f 19/64/4 17/69/4 15/65/4
f 60/66/4 59/123/4 53/67/4
f 21/15/2 23/14/2 17/69/2
f 23/38/6 22/37/6 20/70/6
f 14/40/5 16/39/5 10/22/5
f 39/53/6 38/52/6 36/72/6
f 24/73/1 21/90/1 19/74/1
f 38/76/5 40/83/5 34/77/5
f 47/78/6 45/207/6 46/79/6
f 48/80/1 42/208/1 43/81/1
f 31/61/6 29/60/6 30/82/6
f 46/47/3 41/46/3 40/83/3
f 2/84/6 3/24/6 5/85/6
f 4/87/2 2/48/2 8/88/2
f 25/3/3 27/2/3 21/90/3
f 30/50/3 25/49/3 24/91/3
f 18/75/4 19/74/4 13/92/4
f 34/32/4 35/31/4 26/93/4
f 3/21/5 1/23/5 7/94/5
f 58/96/4 60/121/4 55/97/4
f 57/99/4 58/117/4 51/100/4
f 54/102/6 53/114/6 50/103/6
f 49/105/1 51/98/1 55/97/1
f 49/107/4 56/110/4 54/108/4
f 56/110/2 55/68/2 53/67/2
f 52/111/5 50/101/5 51/100/5
f 59/113/4 57/119/4 50/103/4
f 42/54/2 47/56/2 44/115/2
f 57/99/5 61/155/5 62/116/5
f 59/113/6 63/154/6 61/118/6
f 58/96/1 62/156/1 64/120/1
f 60/66/2 64/153/2 63/122/2
f 80/124/1 77/209/1 76/125/1
f 76/125/3 68/210/3 65/127/3
f 67/128/3 73/142/3 74/129/3
f 67/131/3 66/143/3 75/132/3
f 79/134/6 78/211/6 73/133/6
f 77/135/2 79/151/2 75/136/2
f 66/138/3 68/146/3 76/137/3
f 65/127/1 68/210/1 70/139/1
f 78/141/5 80/152/5 74/129/5
f 66/143/6 67/131/6 69/144/6
f 68/146/2 66/138/2 72/147/2
f 67/128/5 65/130/5 71/149/5
f 79/151/4 77/135/4 6/89/4
f 5/85/4 78/211/4 79/134/4
f 80/152/4 78/141/4 5/95/4
f 6/57/4 77/209/4 80/124/4
f 70/148/4 72/147/4 63/122/4
f 63/154/4 72/145/4 69/144/4
f 69/150/4 71/149/4 62/116/4
f 62/156/4 71/140/4 70/139/4
f 84/157/1 83/176/1 81/158/1
f 88/160/6 87/174/6 85/161/6
f 92/163/2 91/172/2 89/164/2
f 96/166/5 95/170/5 93/167/5
f 96/166/7 100/180/7 99/169/7
f 92/163/8 98/179/8 97/171/8
f 88/160/9 104/178/9 103/173/9
f 84/157/10 102/177/10 101/175/10
f 102/177/4 103/173/4 104/178/4
f 98/179/4 99/169/4 100/180/4
f 105/181/6 107/200/6 108/182/6
f 109/184/1 111/197/1 112/185/1
f 113/187/5 115/196/5 116/188/5
f 117/190/2 119/194/2 120/191/2
f 123/193/11 124/202/11 120/191/11
f 121/195/12 122/203/12 116/188/12
f 111/197/13 127/212/13 128/198/13
f 125/199/14 126/201/14 108/182/14
f 128/198/3 127/212/3 126/201/3
f 124/202/3 123/193/3 122/203/3
